#!OML:ASF H:\ManfredObstacles\Project 1\Capture day 2\Session 1\male.ASF
:FULLY-SPECIFIED
:DEGREES
237
root 1.33301 15.1585 0.778105 -160.645 -5.68532 176.802
lowerback -2.51883 -0.127587 -6.47238
upperback -0.192521 -0.021617 -0.645079
thorax 1.21596 -0.0613402 2.96265
lowerneck -40.4278 -2.04328 -1.397
upperneck 38.4329 -5.61882 3.39723
head 24.1906 -2.03984 0.215113
rclavicle 3.77691e-015 7.15625e-015
rhumerus -29.4123 -2.06104 -87.2252
rradius 43.0197
rwrist 21.7237
rhand -5.32706 -7.59926
rfingers 7.12502
rthumb 20.4791 -36.5392
lclavicle 3.77691e-015 7.15625e-015
lhumerus -25.1842 -25.6552 95.3246
lradius 47.3798
lwrist -26.2101
lhand -3.24554 5.83974
lfingers 7.12502
lthumb 22.4783 34.5515
rfemur -28.8798 4.87337 19.2373
rtibia 52.976
rfoot -22.8976 -24.5858
rtoes -20.8868
lfemur -17.5332 -11.3457 -25.1521
ltibia 34.0735
lfoot -11.4308 34.5733
ltoes -1.54087
238
root 1.32566 15.1368 0.717762 -160.675 -5.72815 176.625
lowerback -2.41483 -0.203564 -6.65549
upperback -0.15488 -0.125979 -0.662166
thorax 1.2071 -0.115679 3.04384
lowerneck -40.8915 -2.03301 -1.37838
upperneck 38.5456 -5.61884 3.3989
head 24.4491 -2.02266 0.210996
rclavicle -9.44227e-015 -2.19657e-014
rhumerus -30.3054 -2.67711 -86.7991
rradius 43.0657
rwrist 21.2446
rhand -5.55717 -8.13783
rfingers 7.12502
rthumb 20.258 -37.1014
lclavicle -9.44227e-015 -2.19657e-014
lhumerus -25.8927 -26.1802 95.2843
lradius 47.9254
lwrist -26.3941
lhand -3.52456 5.63784
lfingers 7.12502
lthumb 22.2104 34.3818
rfemur -29.6529 4.20416 19.1368
rtibia 54.9149
rfoot -21.5125 -24.3739
rtoes -22.687
lfemur -17.1267 -11.2621 -25.4044
ltibia 33.8853
lfoot -11.5656 34.4115
ltoes -1.68687
239
root 1.31883 15.1246 0.651022 -160.643 -5.79811 176.489
lowerback -2.40582 -0.281887 -6.73736
upperback -0.115366 -0.228582 -0.698478
thorax 1.25346 -0.170439 3.04843
lowerneck -41.0712 -1.97567 -1.20469
upperneck 38.5656 -5.62767 3.34815
head 24.5148 -1.99779 0.146845
rclavicle -5.46658e-015 1.50082e-014
rhumerus -31.3209 -3.38681 -86.371
rradius 43.2796
rwrist 20.5599
rhand -5.56371 -8.48688
rfingers 7.12502
rthumb 20.2517 -37.4511
lclavicle -5.46658e-015 1.50082e-014
lhumerus -26.5542 -26.7267 95.2048
lradius 48.4968
lwrist -25.9759
lhand -3.68119 5.37626
lfingers 7.12502
lthumb 22.0601 34.138
rfemur -30.5963 3.72127 19.0196
rtibia 56.9365
rfoot -20.7228 -23.7843
rtoes -24.3894
lfemur -16.7483 -11.2693 -25.5825
ltibia 33.6645
lfoot -11.6177 34.319
ltoes -1.83662
240
root 1.314 15.1125 0.580016 -160.734 -5.8074 176.271
lowerback -2.19211 -0.368259 -7.02836
upperback -0.150178 -0.357846 -0.67624
thorax 1.11255 -0.23205 3.23082
lowerneck -40.8544 -1.96739 -1.46093
upperneck 38.7474 -5.67477 3.6396
head 24.6584 -2.03547 0.341038
rclavicle -9.19379e-015 2.29596e-014
rhumerus -32.4454 -3.99697 -85.7823
rradius 43.0818
rwrist 20.2981
rhand -5.93735 -8.58485
rfingers 7.12502
rthumb 19.8926 -37.5868
lclavicle -9.19379e-015 2.29596e-014
lhumerus -27.3886 -26.9889 95.2579
lradius 49.093
lwrist -26.3604
lhand -3.71982 5.08847
lfingers 7.12502
lthumb 22.023 33.8546
rfemur -31.4803 3.32261 18.7866
rtibia 59.0455
rfoot -19.7361 -22.9632
rtoes -25.9602
lfemur -16.2113 -11.157 -25.8762
ltibia 33.4372
lfoot -11.7814 34.1736
ltoes -1.80658
241
root 1.30863 15.0971 0.508899 -160.73 -5.75543 176.166
lowerback -2.0908 -0.378842 -7.13593
upperback -0.202393 -0.383267 -0.720032
thorax 1.00459 -0.241654 3.24563
lowerneck -40.9036 -1.86303 -1.16858
upperneck 38.7806 -5.6506 3.47991
head 24.6733 -2.00066 0.202236
rclavicle 3.05631e-014 2.18663e-014
rhumerus -33.7019 -4.7634 -85.2254
rradius 43.2193
rwrist 20.0145
rhand -5.86439 -9.13614
rfingers 7.12502
rthumb 19.9627 -38.1308
lclavicle 3.05631e-014 2.18663e-014
lhumerus -28.1678 -27.6638 95.2915
lradius 49.6525
lwrist -25.8173
lhand -4.05857 4.94011
lfingers 7.12502
lthumb 21.6977 33.7442
rfemur -32.555 2.78345 18.68
rtibia 61.1861
rfoot -18.1097 -22.3055
rtoes -26.7681
lfemur -15.745 -11.0475 -26.0574
ltibia 33.1272
lfoot -11.8214 34.0806
ltoes -1.97423
242
root 1.3053 15.0802 0.435756 -160.762 -5.73331 176.03
lowerback -2.11666 -0.445223 -7.32033
upperback -0.0713493 -0.459155 -0.710674
thorax 1.16458 -0.289188 3.35525
lowerneck -41.1531 -1.93422 -1.46128
upperneck 38.888 -5.7273 3.76362
head 24.9131 -2.03184 0.393759
rclavicle 5.56597e-015 2.3556e-014
rhumerus -34.4789 -5.46878 -84.5798
rradius 42.895
rwrist 19.8826
rhand -5.86138 -9.43433
rfingers 7.12502
rthumb 19.9656 -38.4286
lclavicle 5.56597e-015 2.3556e-014
lhumerus -28.6517 -27.902 95.1518
lradius 50.4475
lwrist -25.9752
lhand -4.0758 4.89098
lfingers 7.12502
lthumb 21.6812 33.697
rfemur -33.639 2.39914 18.5494
rtibia 63.3727
rfoot -16.3844 -21.6695
rtoes -27.1801
lfemur -15.2116 -10.9157 -26.259
ltibia 32.7838
lfoot -11.6526 33.9893
ltoes -2.2935
243
root 1.29786 15.0734 0.353066 -160.777 -5.74255 175.865
lowerback -2.0414 -0.523772 -7.4905
upperback -0.0554293 -0.567033 -0.697727
thorax 1.15266 -0.344464 3.46075
lowerneck -41.5852 -1.8485 -1.23328
upperneck 39.0432 -5.66456 3.54769
head 25.1766 -1.99217 0.244901
rclavicle 8.44835e-015 -6.65929e-015
rhumerus -35.4999 -6.15978 -83.8689
rradius 42.5715
rwrist 19.5052
rhand -6.06007 -9.3973
rfingers 7.12502
rthumb 19.7746 -38.4114
lclavicle 8.44835e-015 -6.65929e-015
lhumerus -29.1999 -28.1521 95.1665
lradius 51.0569
lwrist -25.3426
lhand -4.39156 4.86299
lfingers 7.12502
lthumb 21.3779 33.7037
rfemur -34.7998 1.86745 18.3992
rtibia 65.5896
rfoot -14.4703 -21.0081
rtoes -27.3401
lfemur -14.6201 -10.9027 -26.5033
ltibia 32.3846
lfoot -11.3117 33.9808
ltoes -2.66303
244
root 1.29124 15.0595 0.270745 -160.827 -5.73007 175.738
lowerback -1.91958 -0.574609 -7.57251
upperback -0.11561 -0.649353 -0.72548
thorax 1.03181 -0.381198 3.4767
lowerneck -41.4525 -1.78141 -1.14084
upperneck 38.9823 -5.58955 3.50211
head 25.0561 -1.96133 0.226678
rclavicle -3.52843e-015 2.70347e-014
rhumerus -36.8548 -6.92303 -83.1163
rradius 42.2584
rwrist 19.8197
rhand -6.12488 -9.33454
rfingers 7.12502
rthumb 19.7123 -38.3551
lclavicle -3.52843e-015 2.70347e-014
lhumerus -29.9991 -28.3386 95.2009
lradius 51.8213
lwrist -25.0541
lhand -4.38248 4.90753
lfingers 7.12502
lthumb 21.3866 33.7472
rfemur -35.9827 1.3909 18.2757
rtibia 67.8308
rfoot -12.4405 -20.3395
rtoes -26.5423
lfemur -13.9822 -10.8525 -26.7136
ltibia 31.9453
lfoot -11.1189 33.9442
ltoes -2.89929
245
root 1.28439 15.0459 0.188222 -160.92 -5.67214 175.515
lowerback -1.78253 -0.668282 -7.84441
upperback -0.10137 -0.782298 -0.696319
thorax 0.988982 -0.44831 3.65624
lowerneck -41.5162 -1.69736 -1.07012
upperneck 39.0699 -5.4725 3.39107
head 25.1429 -1.92878 0.185382
rclavicle -4.09993e-015 2.68359e-015
rhumerus -37.9546 -7.42793 -82.2842
rradius 41.7748
rwrist 19.9828
rhand -6.17735 -9.53124
rfingers 7.12502
rthumb 19.6619 -38.5569
lclavicle -4.09993e-015 2.68359e-015
lhumerus -30.6093 -28.4059 95.2219
lradius 52.5624
lwrist -24.6589
lhand -4.68878 4.84149
lfingers 7.12502
lthumb 21.0924 33.7143
rfemur -37.1609 0.874742 18.034
rtibia 70.1008
rfoot -10.4466 -19.607
rtoes -24.3925
lfemur -13.2444 -10.9315 -27.0554
ltibia 31.4398
lfoot -10.514 33.9984
ltoes -3.47581
246
root 1.27765 15.0328 0.103257 -160.991 -5.62034 175.336
lowerback -1.60233 -0.709788 -7.96127
upperback -0.0899089 -0.85513 -0.752417
thorax 0.909045 -0.483924 3.66336
lowerneck -41.3829 -1.73531 -1.25465
upperneck 39.1048 -5.52994 3.58113
head 25.1636 -1.96181 0.309862
rclavicle 5.61567e-015 -2.98177e-016
rhumerus -39.1232 -8.18377 -81.4701
rradius 41.3734
rwrist 20.2225
rhand -6.14236 -9.49346
rfingers 7.12502
rthumb 19.6955 -38.5157
lclavicle 5.61567e-015 -2.98177e-016
lhumerus -31.0963 -28.7025 95.1465
lradius 53.294
lwrist -24.1502
lhand -5.11117 4.94789
lfingers 7.12502
lthumb 20.6866 33.8654
rfemur -38.4579 0.300036 17.882
rtibia 72.3591
rfoot -8.52136 -18.9732
rtoes -23.582
lfemur -12.5573 -10.8557 -27.3375
ltibia 30.9815
lfoot -10.054 33.9602
ltoes -3.98447
247
root 1.27154 15.0192 0.0143199 -161.111 -5.60954 175.187
lowerback -1.51662 -0.799758 -8.11725
upperback 0.0119779 -0.974679 -0.705119
thorax 0.984721 -0.549669 3.79645
lowerneck -41.831 -1.51587 -0.74896
upperneck 38.9436 -5.17669 3.08532
head 25.0674 -1.79992 0.0499626
rclavicle 1.19768e-014 5.06901e-015
rhumerus -40.1027 -8.7849 -80.5445
rradius 40.7978
rwrist 20.6866
rhand -5.96674 -9.52411
rfingers 7.12502
rthumb 19.8643 -38.529
lclavicle 1.19768e-014 5.06901e-015
lhumerus -31.4603 -28.7606 95.0904
lradius 54.0886
lwrist -23.7989
lhand -5.35625 4.95696
lfingers 7.12502
lthumb 20.4511 33.8999
rfemur -39.6866 -0.224053 17.7748
rtibia 74.6143
rfoot -6.86205 -18.3023
rtoes -20.8942
lfemur -11.7958 -10.77 -27.5791
ltibia 30.4938
lfoot -9.75817 33.8952
ltoes -4.35969
248
root 1.26484 14.9982 -0.0766339 -161.205 -5.54989 175.047
lowerback -1.45505 -0.841569 -8.18947
upperback 0.0682432 -1.03499 -0.761266
thorax 1.01615 -0.584136 3.77717
lowerneck -41.5575 -1.59301 -1.0542
upperneck 39.1632 -5.39088 3.44845
head 25.2515 -1.89712 0.240278
rclavicle -3.80176e-015 1.68967e-015
rhumerus -41.2293 -9.57387 -79.6894
rradius 40.2611
rwrist 21.2671
rhand -5.97426 -9.55794
rfingers 7.12502
rthumb 19.8571 -38.5635
lclavicle -3.80176e-015 1.68967e-015
lhumerus -31.7925 -28.8462 94.9295
lradius 54.8843
lwrist -23.7216
lhand -5.50802 5.01382
lfingers 7.12502
lthumb 20.3052 33.9724
rfemur -40.9897 -0.860743 17.6943
rtibia 76.8472
rfoot -6.13092 -17.6645
rtoes -19.2962
lfemur -11.0737 -10.8219 -27.8315
ltibia 30.0605
lfoot -9.29371 33.9897
ltoes -4.66525
249
root 1.26051 14.9786 -0.169556 -161.352 -5.4887 174.825
lowerback -1.25453 -0.898515 -8.3633
upperback 0.176314 -1.12635 -0.819493
thorax 1.02909 -0.636 3.81333
lowerneck -41.8711 -1.28842 -0.359219
upperneck 39.0457 -5.09623 2.97383
head 25.1496 -1.72754 -0.0635701
rclavicle -1.49337e-014 -2.05742e-014
rhumerus -42.2089 -10.3436 -78.7647
rradius 39.5074
rwrist 21.9033
rhand -5.95365 -9.30032
rfingers 7.12502
rthumb 19.8769 -38.3039
lclavicle -1.49337e-014 -2.05742e-014
lhumerus -32.048 -28.9455 94.7669
lradius 55.7395
lwrist -23.4996
lhand -5.72855 5.16624
lfingers 7.12502
lthumb 20.0933 34.1472
rfemur -42.2793 -1.47012 17.5396
rtibia 79.0204
rfoot -5.92794 -17.6065
rtoes -18.5389
lfemur -10.2464 -10.8322 -28.164
ltibia 29.5913
lfoot -8.86732 34.0168
ltoes -5.03209
250
root 1.25593 14.9575 -0.261024 -161.47 -5.48909 174.76
lowerback -1.03355 -0.980919 -8.46557
upperback 0.160377 -1.25552 -0.716508
thorax 0.909604 -0.694757 3.97814
lowerneck -41.9271 -1.23645 -0.404652
upperneck 39.1035 -4.97 2.93617
head 25.22 -1.70037 -0.0371015
rclavicle -6.70898e-015 2.37548e-014
rhumerus -43.3436 -10.7614 -77.678
rradius 38.8007
rwrist 22.3035
rhand -5.70837 -9.38215
rfingers 7.12502
rthumb 20.1127 -38.3611
lclavicle -6.70898e-015 2.37548e-014
lhumerus -32.4355 -28.7724 94.8324
lradius 56.62
lwrist -23.5365
lhand -6.00573 5.26453
lfingers 7.12502
lthumb 19.8269 34.2732
rfemur -43.5808 -2.04276 17.5783
rtibia 81.0777
rfoot -6.4462 -17.7901
rtoes -17.047
lfemur -9.48905 -10.7922 -28.3099
ltibia 29.1394
lfoot -8.41787 33.9868
ltoes -5.42273
251
root 1.252 14.9443 -0.361233 -161.565 -5.44277 174.619
lowerback -0.853083 -1.04263 -8.61439
upperback 0.249276 -1.3502 -0.681445
thorax 0.917328 -0.745963 4.09777
lowerneck -42.0497 -1.31817 -0.674457
upperneck 39.1639 -5.04328 3.16818
head 25.3624 -1.73773 0.123165
rclavicle -1.06598e-014 -2.06736e-014
rhumerus -44.4007 -11.4437 -76.5734
rradius 38.0092
rwrist 23.421
rhand -5.75595 -9.17423
rfingers 7.12502
rthumb 20.0669 -38.158
lclavicle -1.06598e-014 -2.06736e-014
lhumerus -32.5546 -28.666 94.7173
lradius 57.6603
lwrist -23.3181
lhand -6.21526 5.37729
lfingers 7.12502
lthumb 19.6254 34.4067
rfemur -44.9236 -2.55293 17.5222
rtibia 82.9506
rfoot -6.85212 -18.1768
rtoes -17.4897
lfemur -8.69093 -10.7797 -28.5414
ltibia 28.6323
lfoot -8.19342 33.93
ltoes -5.6669
